# xmcd
#
# Track frame offsets: 
#        150
#        14105
#        28967
#        40232
#        52202
#        69835
#        85182
#        100157
#        113304
#        129279
#
# Disc length: 1877 seconds
#
# Revision: 0
# Processed by: cddbd v1.5.2PL0 Copyright (c) Steve Scherf et al.
# Submitted via: ExactAudioCopy v1.0b3
#
DISCID=7e07530a
DTITLE=Violinaires - The Upper Way
DYEAR=1900
DGENRE=Gospel
TTITLE0=You've Been So Good To Me
TTITLE1=All The Way
TTITLE2=Lonely Soldier
TTITLE3=Today
TTITLE4=Take Care
TTITLE5=The Upper Way
TTITLE6=Solid Rock
TTITLE7=Tomorrow May Be Too Late
TTITLE8=Crucifixion (He Never Said A Word)
TTITLE9=Doing My Thing
EXTD=
EXTT0=
EXTT1=
EXTT2=
EXTT3=
EXTT4=
EXTT5=
EXTT6=
EXTT7=
EXTT8=
EXTT9=
PLAYORDER=
